<svg width="172" height="76" viewBox="0 0 172 76" fill="none" xmlns="http://www.w3.org/2000/svg">
<path fill-rule="evenodd" clip-rule="evenodd" d="M25.7079 0.160926C25.4891 0.239358 25.1916 0.381479 25.047 0.47658C24.7169 0.693816 23.9494 1.6319 23.148 2.79736C22.3088 4.01797 20.0673 7.31049 19.9357 7.51586C19.8772 7.60723 19.3889 8.32368 18.8507 9.108C17.5486 11.0054 15.6605 13.7747 14.0369 16.1682C13.3084 17.2421 11.9646 19.2027 11.0506 20.525C10.1367 21.8474 8.94928 23.5784 8.41184 24.3718C7.8745 25.1652 6.84005 26.6799 6.11314 27.7377C5.38624 28.7956 4.46179 30.142 4.05871 30.7297C3.65573 31.3174 2.87308 32.4474 2.31958 33.2408C0.213967 36.2588 -0.0706054 36.8755 0.0124786 38.24C0.0921584 39.5463 0.249177 39.8271 3.47988 44.4384C4.66571 46.1311 6.34782 48.5017 7.1943 49.6732C7.73429 50.4206 8.57205 51.5986 9.05598 52.2911C9.53991 52.9835 10.2381 53.9692 10.6074 54.4816C10.9769 54.994 11.3599 55.5349 11.4585 55.6836C11.5572 55.8324 12.3369 56.9383 13.191 58.1413C14.0453 59.3442 15.2421 61.0357 15.8506 61.9C16.4592 62.7643 17.9145 64.8268 19.0847 66.4833C20.2549 68.1399 21.5836 70.0293 22.0373 70.682C25.3886 75.5034 25.8207 75.954 27.1339 75.9975C28.1381 76.0307 28.7843 75.7394 29.5375 74.9142C29.7724 74.6568 31.0502 72.7614 36.9571 63.9081C39.7085 59.7844 42.0364 56.3143 43.6596 53.9172C44.54 52.6171 49.2962 45.5122 49.8114 44.7277C49.9658 44.4926 50.3342 43.9396 50.6301 43.4988C51.972 41.5001 52.924 39.9708 53.2243 39.3315C53.5173 38.7077 53.5504 38.5336 53.5495 37.6218C53.5486 36.747 53.5091 36.5218 53.264 35.9929C52.9803 35.3807 52.1296 34.0847 50.6159 31.9585C50.1765 31.3414 49.2649 30.0431 48.5901 29.0734C46.771 26.4593 43.3496 21.5742 42.5499 20.4493C42.1651 19.908 41.4575 18.8983 40.9774 18.2053C40.168 17.0372 38.1054 14.0939 35.8696 10.9164C35.3558 10.1864 34.5286 8.99858 34.0313 8.27699C32.769 6.44518 29.9757 2.43438 29.4282 1.66727C28.426 0.263405 27.0154 -0.307846 25.7079 0.160926ZM26.6322 4.68538C26.5706 4.72855 26.2235 5.18471 25.861 5.6989C25.4983 6.21319 24.9223 7.03053 24.5808 7.51543C24.2392 8.00034 23.4134 9.20545 22.7457 10.1936C20.8908 12.9382 19.0711 15.6217 18.0221 17.1591C17.5009 17.9231 16.9642 18.7112 16.8295 18.9104C16.6949 19.1096 16.5847 19.3414 16.5847 19.4255C16.5847 19.5097 16.8116 19.8979 17.089 20.2882C17.3663 20.6786 17.7612 21.2477 17.9666 21.553C18.5915 22.4816 19.4589 23.7383 20.097 24.6389C20.7823 25.6065 22.3003 27.762 22.6931 28.3254C25.3254 32.1009 26.9938 34.3321 27.1242 34.2511C27.2852 34.1512 28.3649 32.6694 29.4174 31.1037C29.9508 30.3103 30.6823 29.2284 31.0429 28.6994C32.5312 26.5164 36.7617 20.1707 36.9875 19.7822L37.2311 19.3634L36.1799 17.8338C35.6017 16.9925 34.6878 15.6792 34.1488 14.9151C30.2947 9.451 29.5574 8.4018 28.4165 6.75826C27.9961 6.15271 26.8096 4.60257 26.7685 4.60524C26.7551 4.6062 26.6937 4.64221 26.6322 4.68538ZM102.034 11.8929C101.924 12.0263 102.074 12.3292 102.926 13.6978C104.22 15.7748 104.33 15.9303 104.517 15.9303C104.601 15.9303 105.069 15.3894 105.557 14.7281C107.394 12.2385 107.484 12.0559 106.923 11.9433C106.758 11.9103 105.621 11.8493 104.395 11.8079C102.481 11.7432 102.148 11.7551 102.034 11.8929ZM67.0805 15.4673C67.0415 15.5064 67.0096 19.5829 67.0096 24.5261C67.0096 32.364 67.0301 33.5432 67.17 33.7438C67.3645 34.0226 67.9763 34.1608 69.6691 34.3079C74.6035 34.7371 77.5011 34.0163 79.0234 31.9814C79.6009 31.2093 79.859 30.4447 79.982 29.1407C80.1892 26.9438 79.7457 25.4115 78.5535 24.2054C77.1475 22.7831 75.8361 22.3635 72.435 22.2481L70.467 22.1813L70.4376 20.3647C70.4202 19.2921 70.4512 18.4826 70.5135 18.3879C70.6034 18.251 71.1638 18.2252 74.3499 18.2108C77.0884 18.1985 78.1222 18.1596 78.2358 18.0648C78.3896 17.9367 78.7417 16.8702 78.8732 16.1337C79.0111 15.3619 79.2886 15.396 72.8707 15.396C69.7251 15.396 67.1195 15.428 67.0805 15.4673ZM87.5304 15.9231C86.5289 15.9895 86.3276 16.091 86.1758 16.6067C85.962 17.3326 85.6146 18.6511 84.9887 21.1127C84.6301 22.5232 84.225 24.0379 84.0885 24.4787C83.952 24.9194 83.7084 25.7609 83.5471 26.3486C82.8956 28.7229 82.6383 29.669 82.6014 29.8241C82.5801 29.9137 82.4405 30.3946 82.2912 30.8926C81.8335 32.4194 81.4645 34.0041 81.4984 34.2976L81.5307 34.5764H83.1264H84.7221L84.8997 33.9887C84.9973 33.6655 85.2778 32.5355 85.5229 31.4777C85.7679 30.4198 85.9993 29.5205 86.0371 29.4791C86.1098 29.3995 91.6707 29.3389 91.7484 29.417C91.7735 29.4421 92.0149 30.3008 92.2848 31.3251C92.9111 33.7014 93.0678 34.2248 93.2026 34.3895C93.2804 34.4846 93.7349 34.523 94.7806 34.523C95.974 34.523 96.2807 34.4915 96.4165 34.3551C96.5084 34.2627 96.5836 34.1702 96.5836 34.1495C96.5836 34.1287 96.3162 33.2305 95.9894 32.1535C95.6626 31.0765 95.1338 29.3299 94.8142 28.272C94.4946 27.2141 93.9989 25.6033 93.7127 24.6924C93.1507 22.9038 92.7553 21.5925 92.1105 19.379C91.5134 17.3288 91.1671 16.4029 90.908 16.1631C90.7186 15.9879 90.4882 15.944 89.5625 15.9071C88.9481 15.8825 88.0337 15.8898 87.5304 15.9231ZM99.0304 15.8946C98.4407 16.0192 98.4601 15.8342 98.5366 20.5783C98.5754 22.988 98.6353 26.8588 98.6696 29.1803C98.7038 31.5017 98.775 33.5737 98.8276 33.7848C99.0049 34.4964 99.1885 34.5722 100.832 34.611C102.554 34.6516 102.94 34.5746 103.238 34.1314C103.358 33.9527 104.264 31.9121 105.252 29.5967C106.239 27.2813 107.258 24.9301 107.516 24.3718C107.773 23.8135 108.048 23.2124 108.126 23.0361C108.841 21.4285 109.155 20.8339 109.271 20.8723C109.492 20.9458 109.552 22.1385 109.645 28.3115C109.729 33.9303 109.743 34.2356 109.934 34.3756C110.174 34.5518 111.654 34.5764 112.236 34.4139C112.62 34.307 112.623 34.2999 112.698 33.5995C112.74 33.2108 112.746 32.3099 112.712 31.5975C112.678 30.8851 112.625 28.0904 112.595 25.3869C112.564 22.6835 112.51 19.5614 112.473 18.4488C112.409 16.5203 112.394 16.4145 112.159 16.1782C111.941 15.9596 111.802 15.9283 110.977 15.9141C108.803 15.8765 108.251 15.9147 107.97 16.1217C107.674 16.3404 107.154 17.316 106.591 18.7124C106.39 19.2099 106.019 20.066 105.767 20.615C105.514 21.1641 105.307 21.6397 105.307 21.672C105.307 21.7042 104.99 22.4571 104.602 23.345C103.856 25.0509 103.786 25.2095 102.918 27.15C102.616 27.8259 102.3 28.5352 102.216 28.7261C101.797 29.6787 101.717 28.9801 101.636 23.6772C101.553 18.2372 101.475 16.2882 101.33 16.0902C101.237 15.9619 100.969 15.9094 100.251 15.879C99.7262 15.8566 99.1767 15.8637 99.0304 15.8946ZM169.455 16.011C169.075 16.026 168.649 16.0648 168.508 16.0972L168.253 16.156L168.315 18.5275C168.348 19.8319 168.457 23.0719 168.556 25.7277C168.656 28.3835 168.706 30.6789 168.669 30.8286C168.538 31.3505 168.301 31.405 165.83 31.4817C163.826 31.5439 163.514 31.5317 163.368 31.3857C163.177 31.1937 163.164 30.9228 162.91 22.1428C162.816 18.9103 162.703 16.4627 162.64 16.3459C162.543 16.1634 162.396 16.144 161.113 16.144C159.946 16.144 159.669 16.1741 159.554 16.3139C159.411 16.4865 159.445 18.3413 159.777 28.3214C159.845 30.3702 159.843 31.398 159.77 31.4711C159.704 31.5376 158.782 31.5806 157.389 31.5821C155.323 31.5843 155.096 31.5664 154.898 31.3864C154.507 31.0316 154.488 30.7613 154.352 23.8375C154.224 17.3434 154.185 16.5804 153.966 16.3577C153.839 16.2295 153.559 16.2036 152.562 16.2286C151.877 16.2458 151.239 16.2832 151.144 16.3117C150.906 16.383 150.838 16.9328 150.891 18.3345C150.916 18.981 150.988 21.9141 151.052 24.8526C151.116 27.7912 151.216 30.6041 151.276 31.1037C151.475 32.7788 152.159 33.7931 153.403 34.2561C153.957 34.4623 154.22 34.4691 161.112 34.454C165.863 34.4436 168.512 34.3976 169.038 34.316C170.391 34.1064 171.191 33.5701 171.7 32.531C171.922 32.0791 171.96 31.825 171.995 30.5694C172.03 29.3157 171.883 24.2995 171.742 21.9141C171.716 21.4734 171.665 20.1029 171.627 18.8688C171.588 17.5529 171.509 16.5143 171.437 16.3577C171.334 16.132 171.224 16.0822 170.731 16.0371C170.409 16.0077 169.835 15.996 169.455 16.011ZM121.266 16.1377C121.038 16.2866 121.123 17.0824 121.499 18.3183C121.58 18.5845 121.713 18.7634 121.877 18.8258C122.015 18.8788 122.93 18.9222 123.909 18.9222C125.152 18.9222 125.728 18.9609 125.817 19.0504C125.914 19.1477 125.945 20.9656 125.945 26.5787C125.945 31.8204 125.98 34.0554 126.064 34.2418C126.22 34.5854 126.408 34.6267 127.82 34.6284C128.794 34.6297 129.03 34.5985 129.15 34.4529C129.271 34.3065 129.296 32.9527 129.296 26.6258V18.9756L131.343 18.9466C133.73 18.9128 133.584 18.9901 133.863 17.6177C134.094 16.479 134.083 16.2658 133.791 16.2061C133.279 16.1015 121.421 16.0369 121.266 16.1377ZM139.16 16.3233C138.839 16.3897 138.616 16.753 138.367 17.6187C138.012 18.8524 137.772 19.6959 137.541 20.525C137.419 20.9658 137.182 21.7832 137.014 22.3416C136.311 24.6895 133.778 33.6304 133.663 34.1718C133.598 34.4718 133.62 34.5226 133.836 34.5747C134.476 34.729 136.703 34.668 136.946 34.4896C137.082 34.3902 137.274 33.7588 137.607 32.3258C137.865 31.2129 138.127 30.1459 138.189 29.955L138.302 29.6077L139.331 29.6006C141.861 29.5832 143.875 29.6235 143.942 29.6926C143.981 29.7341 144.284 30.8258 144.614 32.1188C144.944 33.4117 145.274 34.5319 145.348 34.6082C145.496 34.7597 148.148 34.8347 148.375 34.6937C148.572 34.5713 148.531 34.348 147.906 32.1612C147.58 31.0213 147.218 29.7519 147.102 29.3406C146.986 28.9292 146.77 28.2079 146.623 27.7377C146.476 27.2676 146.242 26.4501 146.102 25.9212C145.962 25.3923 145.628 24.1901 145.359 23.2498C144.817 21.3542 144.582 20.524 144.451 20.0442C144.368 19.7409 144.226 19.2568 143.878 18.0941C143.577 17.0918 143.471 16.8184 143.279 16.5633C143.088 16.3078 143.06 16.304 141.244 16.2888C140.231 16.2803 139.293 16.2958 139.16 16.3233ZM88.5313 19.3717C88.4723 19.4477 88.2952 19.9667 88.1377 20.525C87.7907 21.7559 86.6902 26.2108 86.6902 26.3845C86.6902 26.4749 87.2588 26.5089 88.7679 26.5089C90.5139 26.5089 90.8554 26.4834 90.9068 26.349C90.9598 26.2102 89.6901 21.5431 89.1479 19.8839C88.9559 19.2964 88.7334 19.1116 88.5313 19.3717ZM140.639 20.2846C140.385 21.1672 139.561 24.2832 139.228 25.6216C139.093 26.162 139.021 26.6429 139.068 26.6901C139.115 26.7374 140.035 26.7921 141.113 26.8116C142.909 26.8441 143.078 26.8313 143.145 26.6579C143.221 26.4571 143.011 25.5622 142.254 22.8758C141.482 20.1334 141.275 19.5633 141.047 19.5633C140.892 19.5633 140.801 19.7248 140.639 20.2846ZM39.2793 23.1142C39.0544 23.3638 38.7877 23.744 36.7851 26.6692C36.1414 27.6095 35.1841 29.004 34.658 29.768C34.1318 30.532 33.2574 31.8303 32.7147 32.6531C30.6376 35.8025 30.6711 35.7371 31.0721 35.8649C31.4481 35.9848 48.3032 35.7666 48.5085 35.6392C48.5879 35.59 48.1204 34.8693 46.7445 32.9202C46.4749 32.5382 45.9234 31.7448 45.5189 31.1571C45.1143 30.5694 44.7449 30.0405 44.6979 29.9817C44.6509 29.9229 44.0887 29.1295 43.4485 28.2186C40.6564 24.2455 39.7156 22.9441 39.6101 22.9091C39.5483 22.8885 39.3994 22.9809 39.2793 23.1142ZM14.0146 23.1113C13.9176 23.1875 13.5377 23.6826 13.1705 24.2115C12.411 25.3053 11.8527 26.0987 10.4147 28.1282C7.78429 31.8404 5.17688 35.7995 5.24497 35.9777C5.29486 36.1082 6.20952 36.127 11.5025 36.1065C21.2994 36.0684 23.0762 36.0305 23.1421 35.8582C23.1907 35.731 22.2951 34.327 21.2195 32.8442C21.0401 32.5967 20.698 32.1159 20.4593 31.7757C20.2208 31.4354 19.3352 30.18 18.4913 28.9858C17.6475 27.7916 16.8852 26.7082 16.7975 26.5783C16.4296 26.0335 14.5751 23.4441 14.391 23.2182C14.2213 23.01 14.1644 22.9938 14.0146 23.1113ZM71.353 25.2266C70.9043 25.256 70.5213 25.3041 70.502 25.3335C70.4827 25.3629 70.4909 26.7333 70.5202 28.3789L70.5734 31.3708L72.1559 31.4004C73.0262 31.4167 74.0076 31.3801 74.3367 31.3191C75.0955 31.1782 75.7972 30.7444 76.2021 30.1657C76.4818 29.7661 76.5236 29.6048 76.5632 28.7739C76.5878 28.257 76.5531 27.5691 76.4862 27.2452C76.1562 25.6484 74.5512 25.0172 71.353 25.2266ZM36.4071 39.6521C33.4133 39.6814 30.9322 39.7372 30.8936 39.7761C30.8549 39.815 31.4091 40.6805 32.1249 41.6995C32.8409 42.7185 34.0498 44.4418 34.8116 45.5291C35.5734 46.6163 36.4725 47.8906 36.8098 48.3607C37.1469 48.8309 37.653 49.5427 37.9345 49.9424C39.0792 51.5687 39.8423 52.5281 39.9909 52.5281C40.1656 52.5281 48.6283 39.8804 48.5701 39.7063C48.5294 39.5846 44.9162 39.5685 36.4071 39.6521ZM20.4949 39.8148C20.4799 39.8265 17.0712 39.8668 12.92 39.9043C8.76864 39.9418 5.33571 40.0092 5.29113 40.0539C5.17581 40.1698 6.36622 41.9203 11.9469 49.8409C13.2151 51.6408 13.8064 52.4857 13.9587 52.7151C14.0868 52.9081 14.4147 52.9856 14.2975 52.7952C14.2613 52.7364 14.2825 52.6884 14.3444 52.6884C14.4063 52.6884 14.4571 52.7364 14.4571 52.7952C14.4571 53.1735 14.9402 52.5673 16.5847 50.1254C17.0235 49.4739 17.6937 48.4906 18.074 47.9403C20.673 44.1795 23.3581 40.0086 23.25 39.9002C23.1932 39.8431 20.5624 39.7615 20.4949 39.8148ZM26.6614 41.8159C26.4617 42.0657 25.9216 42.823 25.4612 43.4988C25.0008 44.1747 24.2061 45.3287 23.6951 46.0634C20.6864 50.3895 16.7975 56.2773 16.7975 56.5065C16.7975 56.6296 17.6964 57.9974 18.5017 59.0997C18.7808 59.4817 19.2416 60.135 19.5256 60.5515C20.0252 61.2841 20.6201 62.1373 21.6424 63.5876C21.9117 63.9696 22.2456 64.4504 22.3845 64.6561C22.5233 64.8618 23.1861 65.7995 23.8574 66.7398C24.5285 67.6801 25.1894 68.6077 25.3259 68.8011C25.4622 68.9945 25.6936 69.3177 25.8399 69.5191C25.9862 69.7206 26.3452 70.2232 26.6378 70.6358C26.9303 71.0485 27.2491 71.3866 27.3463 71.387C27.4499 71.3875 27.7841 71.0013 28.1542 70.453C28.5015 69.9388 29.1401 69.0007 29.5734 68.3685C30.0067 67.7362 30.5765 66.8847 30.8398 66.4762C31.1031 66.0677 31.8778 64.902 32.5614 63.8858C36.3864 58.1998 37.6521 56.2514 37.6144 56.1077C37.5913 56.0196 37.0942 55.2742 36.5097 54.4515C35.1774 52.5765 32.803 49.2015 31.4781 47.2998C29.0719 43.8459 27.2493 41.3617 27.1216 41.3617C27.0681 41.3617 26.861 41.566 26.6614 41.8159ZM85.6795 41.5455C84.4054 41.5768 82.199 41.7678 81.5012 41.9071C81.1176 41.9837 80.8902 42.0952 80.7834 42.2589C80.6467 42.4685 80.6414 43.5857 80.7413 51.1464C80.8041 55.9033 80.9015 59.9745 80.9578 60.1949L81.0601 60.5956H82.5104C83.7035 60.5956 83.9948 60.5646 84.1529 60.4209C84.3333 60.2569 84.3409 60.0406 84.2771 56.8947C84.2193 54.0478 84.2317 53.5434 84.3592 53.5446C85.7862 53.558 88.2084 53.3946 88.9934 53.2318C91.5334 52.7051 93.1253 51.1689 93.5707 48.8148C93.7819 47.6987 93.7039 46.2483 93.3816 45.2993C93.1116 44.5041 92.3942 43.4393 91.8254 42.9894C90.9133 42.2678 89.3859 41.7102 88.0782 41.6214C87.6366 41.5915 87.1316 41.5567 86.9561 41.5445C86.7806 41.5321 86.2061 41.5326 85.6795 41.5455ZM95.3809 41.7589C95.1582 41.7831 94.9522 41.8652 94.923 41.9414C94.8614 42.1029 95.2026 43.4646 95.8353 45.5825C96.0811 46.4053 96.5145 47.8719 96.7984 48.8416C98.5465 54.8115 98.5891 54.9318 99.0913 55.3353C99.291 55.4957 99.7539 55.7241 100.12 55.843C100.718 56.0372 100.783 56.0862 100.757 56.3239C100.705 56.7946 100.263 57.5436 99.8923 57.7906C99.5495 58.0187 99.4276 58.0311 97.5253 58.0311C95.6878 58.0311 95.5195 58.0468 95.5157 58.2181C95.5134 58.321 95.4874 58.7657 95.4578 59.2065C95.4283 59.6473 95.4493 60.0751 95.5046 60.1573C95.7649 60.5444 99.2362 60.7326 100.518 60.4291C101.747 60.1382 102.381 59.6288 102.958 58.4693C103.387 57.6071 103.473 57.3157 105.368 50.3375C107.202 43.5875 107.536 42.3089 107.539 42.0367C107.542 41.6974 107.276 41.654 105.722 41.7403C104.609 41.8022 104.325 41.8505 104.254 41.99C104.145 42.2032 103.764 43.7374 103.124 46.5442C102.693 48.431 101.987 51.3474 101.682 52.5014C101.596 52.823 101.525 52.9021 101.321 52.9021C101.1 52.9021 101.038 52.8084 100.846 52.1808C100.605 51.3956 99.6296 47.6914 98.9252 44.8879C98.3787 42.7132 98.2052 42.0929 98.0973 41.9275C98.0093 41.7928 96.1405 41.6767 95.3809 41.7589ZM112.647 41.8551C111.505 42.0812 110.685 42.5896 110.244 43.345C109.68 44.3129 109.672 44.435 109.67 52.5952C109.669 59.4862 109.684 60.1547 109.845 60.2887C110.088 60.4916 112.68 60.4982 112.881 60.2964C112.992 60.1857 113.025 58.6611 113.046 52.7663L113.072 45.375L113.339 45.1064L113.606 44.8378L116.545 44.8526C119.273 44.8662 119.504 44.8822 119.76 45.0742C119.912 45.1881 120.068 45.3971 120.107 45.5387C120.147 45.6804 120.184 49.0444 120.19 53.0143C120.198 58.4738 120.231 60.2635 120.328 60.3605C120.414 60.4473 120.909 60.4888 121.858 60.4888C123.032 60.4888 123.283 60.46 123.405 60.312C123.526 60.1667 123.555 58.8467 123.572 52.8589C123.584 48.3601 123.551 45.3378 123.485 44.9414C123.208 43.2859 122.313 42.322 120.749 41.9964C120.23 41.8881 113.108 41.7638 112.647 41.8551ZM70.2768 41.9995C67.8111 42.0469 67.3031 42.0829 67.2148 42.2166C67.1474 42.3183 67.1293 43.3914 67.165 45.1551C67.1959 46.6831 67.2496 50.7414 67.2844 54.1735C67.3191 57.6056 67.3705 60.4739 67.3987 60.5475C67.4789 60.7577 67.8182 60.8063 69.217 60.8078C70.3957 60.8092 70.5412 60.7882 70.7412 60.5873C70.9618 60.3658 70.9622 60.3491 70.8989 53.615C70.864 49.9023 70.8104 46.474 70.7797 45.9964C70.7353 45.305 70.755 45.1161 70.8758 45.0695C70.9593 45.0372 72.4574 44.9766 74.2047 44.9346C75.9521 44.8928 77.4827 44.8207 77.6061 44.7747C77.8503 44.6836 78.113 43.838 78.2434 42.7242C78.3052 42.1962 78.2889 42.1188 78.0936 42.0138C77.8666 41.8917 76.0614 41.8884 70.2768 41.9995ZM131.264 42.0056C129.182 42.1356 128.171 42.7168 127.645 44.0865C127.428 44.6527 127.396 44.9401 127.373 46.5442C127.343 48.6195 127.612 59.9913 127.7 60.3552C127.756 60.5896 127.793 60.5956 129.184 60.5956C130.376 60.5956 130.64 60.5662 130.789 60.4169C130.952 60.2524 130.96 59.8703 130.88 55.6885C130.832 53.1862 130.791 49.846 130.789 48.2659L130.785 45.3927L131.053 45.1918C131.291 45.0123 131.607 44.9838 134.033 44.923C137.046 44.8475 137.471 44.9034 137.659 45.4002C137.782 45.7249 137.818 46.7469 137.977 54.3446C138.042 57.4594 138.136 60.0852 138.186 60.1796C138.356 60.5031 140.967 60.5094 141.288 60.1871C141.449 60.0258 141.45 59.913 141.343 54.1843C141.195 46.286 141.114 44.922 140.73 43.8925C140.336 42.8329 139.391 42.1926 137.946 42.004C137.067 41.8894 133.113 41.8903 131.264 42.0056ZM85.52 44.4229C85.2567 44.4433 84.8378 44.4871 84.5891 44.5203L84.137 44.5805L84.1475 47.0049C84.1533 48.3383 84.1892 49.6937 84.2273 50.017L84.2966 50.6047L86.1051 50.5989C87.7252 50.5937 87.9772 50.5679 88.5244 50.3511C89.2135 50.0781 89.6756 49.6643 90.0146 49.0162C90.2001 48.6616 90.2452 48.3952 90.2431 47.6662C90.2396 46.4532 90.0764 45.9329 89.5264 45.3804C88.8191 44.6699 87.2313 44.2904 85.52 44.4229Z" fill="white"/>
</svg>
