<svg width="160" height="76" viewBox="0 0 160 76" fill="none" xmlns="http://www.w3.org/2000/svg">
<path d="M59.4523 58.5391H46.5686V0.208984H59.4523V58.5391ZM82.426 58.5391H69.6967V20.1152H82.426V58.5391ZM84.4406 10.8764C83.9134 11.0366 83.4266 11.1901 82.9397 11.337C80.8512 11.9778 78.7627 12.6153 76.6741 13.2628C76.2813 13.3863 75.9254 13.3529 75.556 13.1694C72.9403 11.8476 70.3179 10.5359 67.6955 9.22085C67.1583 8.95049 66.8997 8.53327 66.94 8.00257C66.9803 7.4652 67.3094 7.0847 67.897 6.90446C70.7108 6.03999 73.5212 5.17552 76.335 4.30437C76.7044 4.19089 77.0435 4.21425 77.386 4.38447C80.0185 5.70955 82.6543 7.02795 85.2834 8.35637C86.2706 8.85369 86.3142 9.9685 85.3875 10.5626C85.3304 10.5993 85.2767 10.6861 85.27 10.7529C85.1995 11.5139 85.1323 12.2715 85.0786 13.0359C85.0719 13.116 85.1457 13.2328 85.2162 13.2829C85.6931 13.6166 85.8979 14.1807 85.7132 14.6947C85.5151 15.2454 85.0181 15.5659 84.4372 15.5125C83.8799 15.4624 83.4434 15.0519 83.3493 14.4878C83.262 13.9671 83.5407 13.4331 84.0478 13.2161C84.2224 13.1427 84.2626 13.0425 84.2727 12.8823C84.3197 12.2315 84.3802 11.5806 84.4406 10.8764ZM71.1607 11.8543C71.6241 12.0846 72.064 12.3049 72.5038 12.5285C73.4037 12.9791 74.3069 13.4297 75.2034 13.887C75.7474 14.164 76.3048 14.2107 76.889 14.0305C78.2389 13.61 79.5887 13.1994 80.9385 12.7855C81.0258 12.7588 81.1097 12.7355 81.2172 12.7021C81.2172 12.7889 81.2172 12.8456 81.2138 12.899C81.1467 13.7001 81.0829 14.5045 81.009 15.3055C80.9653 15.7928 80.7135 16.16 80.2569 16.3202C78.8936 16.7975 77.5203 17.2481 76.147 17.7053C75.8347 17.8088 75.5292 17.7588 75.2438 17.6052C74.0215 16.9544 72.7959 16.3035 71.5771 15.6393C71.0969 15.3789 70.8753 14.9617 70.9257 14.4077C70.9962 13.64 71.0566 12.869 71.1238 12.1013C71.1339 12.0312 71.1473 11.9611 71.1607 11.8543ZM115.412 29.6043H106.333V44.2636C106.333 46.1161 106.696 47.4779 107.421 48.3523C108.146 49.2268 109.385 49.6641 111.148 49.6641C112.649 49.6641 113.891 49.4605 114.875 49.0466L115.03 58.3055C112.908 59.0765 110.45 59.4637 107.656 59.4637C102.74 59.4637 99.2214 58.2821 97.0993 55.9156C94.9772 53.5492 93.9162 50.1814 93.9162 45.809V29.6077H87.7077V20.1185H93.8389V10.0119H106.336V20.1185H115.416V29.6043H115.412ZM159.731 39.7911C159.731 41.1796 159.705 42.1842 159.654 42.8017H131.634C131.839 44.8611 132.849 46.5834 134.662 47.9719C136.472 49.3604 138.544 50.0546 140.871 50.0546C144.598 50.0546 147.442 48.7162 149.41 46.0426L158.257 51.5966C154.48 57.0505 148.634 59.7741 140.716 59.7741C134.662 59.7741 129.606 57.9617 125.543 54.3336C121.48 50.7088 119.452 45.7589 119.452 39.4807C119.452 33.3092 121.43 28.3327 125.388 24.551C129.347 20.7694 134.327 18.8802 140.33 18.8802C146.126 18.8802 150.81 20.746 154.379 24.4743C157.945 28.2058 159.731 33.3092 159.731 39.7911ZM131.634 34.928H148.009C148.009 32.8186 147.351 31.0696 146.028 29.6811C144.709 28.2926 142.832 27.5984 140.401 27.5984C138.02 27.5984 136.002 28.3193 134.347 29.7579C132.695 31.1998 131.788 32.922 131.634 34.928ZM3.89834 55.455C3.90841 55.1546 4.23747 54.8542 4.44565 54.5739C7.23258 50.7989 10.0195 47.0306 12.8064 43.259V42.6015C9.22373 45.5854 5.63766 48.5693 2.05494 51.5532C1.37332 52.1207 0.698411 52.6947 0 53.2421V58.5391H3.86476C3.86476 57.5077 3.86812 56.4797 3.89834 55.455ZM12.8064 40.2317V35.9327H35.6257V25.3621H12.8064V15.1019H36.9453V3.91385H0V46.0159C4.25762 44.0934 8.52196 42.1675 12.8064 40.2317ZM15.5631 47.2743C15.1065 51.0192 14.6532 54.7641 14.1932 58.5391H38.3421V47.2743H15.5631ZM12.2726 58.5391C10.2176 57.7781 8.17275 57.0204 6.10773 56.2561C5.72495 57.0271 5.34553 57.7881 4.97282 58.5391H12.2726ZM88.0938 75.5381L92.4958 65.4849H94.0538L98.4122 75.5381H96.3539L95.4104 73.2384H91.0251L90.1119 75.5381H88.0938ZM91.6396 71.7031H94.7825L93.2245 67.6144L91.6396 71.7031ZM107.827 66.7599L106.457 67.838C106.209 67.4976 105.873 67.2405 105.45 67.0636C105.027 66.8901 104.594 66.8 104.157 66.8C103.13 66.8 102.287 67.1504 101.636 67.8514C100.984 68.5523 100.655 69.4268 100.655 70.4782C100.655 71.5763 100.967 72.4674 101.592 73.155C102.217 73.8426 103.046 74.1864 104.083 74.1864C105.151 74.1864 105.97 73.7992 106.541 73.0215L107.985 74.0295C107.042 75.2044 105.739 75.7918 104.07 75.7918C102.489 75.7918 101.192 75.2978 100.185 74.3065C99.1744 73.3186 98.6707 72.0402 98.6707 70.4782C98.6707 68.8961 99.1878 67.6244 100.222 66.6665C101.256 65.7052 102.566 65.2246 104.157 65.2246C104.862 65.2246 105.554 65.3547 106.236 65.6151C106.914 65.8788 107.445 66.2593 107.827 66.7599ZM107.868 75.5381L112.27 65.4849H113.828L118.186 75.5381H116.128L115.184 73.2384H110.799L109.886 75.5381H107.868ZM111.413 71.7031H114.556L112.998 67.6144L111.413 71.7031ZM119.183 75.5381V65.4849H122.769C123.474 65.4849 124.139 65.5717 124.771 65.7486C125.398 65.9222 125.989 66.1992 126.543 66.573C127.094 66.9468 127.537 67.4742 127.866 68.1484C128.195 68.826 128.36 69.6137 128.36 70.5115C128.36 71.3526 128.195 72.107 127.866 72.7712C127.537 73.432 127.101 73.9627 126.553 74.3532C126.006 74.7471 125.412 75.0408 124.767 75.2411C124.122 75.4413 123.461 75.5381 122.773 75.5381H119.183ZM120.983 73.9761H122.484C122.873 73.9761 123.249 73.9427 123.605 73.876C123.961 73.8092 124.317 73.6924 124.67 73.5288C125.022 73.362 125.325 73.155 125.576 72.9047C125.828 72.6543 126.033 72.3239 126.191 71.91C126.349 71.4995 126.426 71.0322 126.426 70.5115C126.426 68.1818 125.113 67.0169 122.484 67.0169H120.983V73.9761ZM130.099 75.5381V65.4849H136.801V67.047H131.902V69.6037H136.546V71.109H131.902V73.9494H137.06V75.5381H130.099ZM138.816 75.5381V65.4849H141.63L144.259 72.6277H144.303L146.901 65.4849H149.732V75.5381H147.946V67.4575H147.915L144.843 75.5381H143.584L140.555 67.4575H140.525V75.5381H138.816ZM154.403 75.5381V71.1791L150.602 65.4849H152.801L155.343 69.7171L157.915 65.4849H160L156.199 71.1791V75.5381H154.403Z" fill="white"/>
</svg>
