<svg width="22" height="21" viewBox="0 0 22 21" fill="none" xmlns="http://www.w3.org/2000/svg">
<path d="M15 5.96191C15 5.03194 15 4.56696 14.8978 4.18546C14.6204 3.15018 13.8117 2.34154 12.7765 2.06414C12.395 1.96191 11.93 1.96191 11 1.96191C10.07 1.96191 9.60504 1.96191 9.22354 2.06414C8.18827 2.34154 7.37962 3.15018 7.10222 4.18546C7 4.56696 7 5.03194 7 5.96191M4.2 19.9619H17.8C18.9201 19.9619 19.4802 19.9619 19.908 19.7439C20.2843 19.5522 20.5903 19.2462 20.782 18.8699C21 18.4421 21 17.882 21 16.7619V9.16191C21 8.04181 21 7.48176 20.782 7.05393C20.5903 6.67761 20.2843 6.37165 19.908 6.1799C19.4802 5.96191 18.9201 5.96191 17.8 5.96191H4.2C3.07989 5.96191 2.51984 5.96191 2.09202 6.1799C1.71569 6.37165 1.40973 6.67761 1.21799 7.05393C1 7.48176 1 8.04181 1 9.16191V16.7619C1 17.882 1 18.4421 1.21799 18.8699C1.40973 19.2462 1.71569 19.5522 2.09202 19.7439C2.51984 19.9619 3.0799 19.9619 4.2 19.9619Z" stroke="white" stroke-width="2" stroke-linecap="round" stroke-linejoin="round"/>
</svg>
