<svg width="24" height="25" viewBox="0 0 24 25" fill="none" xmlns="http://www.w3.org/2000/svg">
<path d="M10 18.9619V6.96191C10 6.03003 10 5.56409 9.84776 5.19655C9.64477 4.70649 9.25542 4.31714 8.76537 4.11415C8.39782 3.96191 7.93188 3.96191 7 3.96191C6.06812 3.96191 5.60218 3.96191 5.23463 4.11415C4.74458 4.31714 4.35523 4.70649 4.15224 5.19655C4 5.56409 4 6.03003 4 6.96191V18.9619C4 19.8938 4 20.3597 4.15224 20.7273C4.35523 21.2173 4.74458 21.6067 5.23463 21.8097C5.60218 21.9619 6.06812 21.9619 7 21.9619C7.93188 21.9619 8.39782 21.9619 8.76537 21.8097C9.25542 21.6067 9.64477 21.2173 9.84776 20.7273C10 20.3597 10 19.8938 10 18.9619Z" stroke="white" stroke-width="2" stroke-linecap="round" stroke-linejoin="round"/>
<path d="M20 18.9619V10.9619C20 10.03 20 9.56409 19.8478 9.19655C19.6448 8.70649 19.2554 8.31714 18.7654 8.11415C18.3978 7.96191 17.9319 7.96191 17 7.96191C16.0681 7.96191 15.6022 7.96191 15.2346 8.11415C14.7446 8.31714 14.3552 8.70649 14.1522 9.19655C14 9.56409 14 10.03 14 10.9619V18.9619C14 19.8938 14 20.3597 14.1522 20.7273C14.3552 21.2173 14.7446 21.6067 15.2346 21.8097C15.6022 21.9619 16.0681 21.9619 17 21.9619C17.9319 21.9619 18.3978 21.9619 18.7654 21.8097C19.2554 21.6067 19.6448 21.2173 19.8478 20.7273C20 20.3597 20 19.8938 20 18.9619Z" stroke="white" stroke-width="2" stroke-linecap="round" stroke-linejoin="round"/>
</svg>
