<svg width="80" height="18" viewBox="0 0 80 18" fill="none" xmlns="http://www.w3.org/2000/svg">
<path d="M0 8.64073C0 7.44933 0.223805 6.33162 0.671457 5.28762C1.13225 4.23132 1.76422 3.31627 2.56734 2.54248C3.37045 1.7564 4.31839 1.13614 5.41117 0.681681C6.50393 0.227221 7.68886 0 8.96595 0C10.243 0 11.4214 0.227221 12.501 0.681681C13.5938 1.12386 14.5351 1.73798 15.3251 2.52405C16.1282 3.29785 16.7536 4.21288 17.2012 5.26919C17.6489 6.31321 17.8726 7.4309 17.8726 8.6223V16.563C17.8726 16.9192 17.7476 17.2139 17.4974 17.4472C17.2604 17.6683 16.951 17.7789 16.5692 17.7789C16.2006 17.7789 15.8846 17.6683 15.6213 17.4472C15.3712 17.2139 15.2461 16.9192 15.2461 16.563V8.71442C15.2461 7.85464 15.0881 7.05015 14.7721 6.30092C14.4693 5.5394 14.0348 4.87615 13.4687 4.31116C12.9157 3.74616 12.2508 3.30398 11.474 2.98464C10.7104 2.65302 9.8744 2.4872 8.96595 2.4872C8.0575 2.4872 7.21488 2.64688 6.43811 2.96623C5.67449 3.28557 5.00961 3.7216 4.44347 4.27431C3.87733 4.82703 3.4363 5.48413 3.12029 6.24565C2.80433 6.99487 2.64633 7.79939 2.64633 8.65916V16.563C2.64633 16.9192 2.52785 17.2139 2.29086 17.4472C2.05387 17.6683 1.74448 17.7789 1.36265 17.7789C1.00718 17.7789 0.691194 17.6683 0.414708 17.4472C0.138243 17.2139 0 16.9192 0 16.563V8.64073ZM24.468 10.1331C24.5734 10.9068 24.8169 11.6314 25.1987 12.307C25.5936 12.9704 26.0939 13.5537 26.6996 14.0572C27.3053 14.5487 27.9898 14.9354 28.7534 15.218C29.5302 15.5005 30.3466 15.6418 31.2024 15.6418C31.5974 15.6418 31.9462 15.6295 32.249 15.605C32.565 15.568 32.8546 15.5189 33.1179 15.4574C33.3944 15.3839 33.6577 15.2916 33.9078 15.1811C34.1713 15.0707 34.4411 14.9417 34.7175 14.7943C34.8623 14.7083 35.0007 14.653 35.1323 14.6285C35.2771 14.5915 35.4088 14.5732 35.5273 14.5732C35.8959 14.5732 36.1989 14.7083 36.4357 14.9784C36.6858 15.2488 36.811 15.5435 36.811 15.8629C36.811 16.047 36.7582 16.2313 36.6531 16.4155C36.5609 16.5875 36.4029 16.7349 36.179 16.8577C35.8367 17.042 35.4878 17.2078 35.1323 17.3552C34.7899 17.5025 34.4215 17.6253 34.0263 17.7236C33.6314 17.8096 33.2035 17.8772 32.7428 17.9262C32.2819 17.9755 31.7685 18 31.2024 18C29.8726 18 28.6218 17.7666 27.4501 17.2999C26.2784 16.8209 25.2513 16.176 24.3691 15.3654C23.5004 14.5547 22.8092 13.6029 22.2957 12.5097C21.7954 11.4166 21.5452 10.2497 21.5452 9.0092C21.5452 7.76867 21.7954 6.60183 22.2957 5.50869C22.8092 4.41556 23.5004 3.46366 24.3691 2.65302C25.2513 1.83009 26.2784 1.18527 27.4501 0.718527C28.6218 0.239503 29.8726 0 31.2024 0C32.5189 0 33.763 0.239503 34.9349 0.718527C36.1066 1.18527 37.1269 1.82395 37.9959 2.6346C38.878 3.44523 39.5759 4.39713 40.0893 5.49027C40.6028 6.57112 40.8661 7.72568 40.8792 8.95394C40.8792 9.28556 40.7607 9.56806 40.5237 9.80141C40.2867 10.0225 39.9773 10.1331 39.5955 10.1331H24.468ZM38.1934 8.0696C38.0881 7.25895 37.8379 6.50971 37.443 5.8219C37.048 5.12181 36.541 4.51997 35.9222 4.01638C35.3034 3.50051 34.5926 3.09519 33.7893 2.80041C32.9994 2.50564 32.1503 2.35824 31.2419 2.35824C30.3334 2.35824 29.4776 2.51177 28.6746 2.81883C27.8845 3.11361 27.1868 3.51894 26.5811 4.03479C25.9754 4.55066 25.4818 5.15865 25.1 5.85875C24.7182 6.54656 24.4812 7.28352 24.389 8.0696H38.1934ZM43.11 1.78711C43.018 1.61515 42.9719 1.43705 42.9719 1.25281C42.9719 0.945747 43.0904 0.6694 43.3274 0.423747C43.5775 0.165813 43.9066 0.0368453 44.3147 0.0368453C44.5648 0.0368453 44.7954 0.104404 45.0059 0.239503C45.2166 0.362338 45.3812 0.546582 45.4997 0.792216L51.1676 13.7257L56.8158 0.792216C56.9212 0.546582 57.0791 0.362338 57.2898 0.239503C57.5135 0.104404 57.7505 0.0368453 58.0006 0.0368453C58.3956 0.0368453 58.7181 0.165813 58.9683 0.423747C59.2185 0.6694 59.3436 0.945747 59.3436 1.25281C59.3436 1.42477 59.304 1.60287 59.2251 1.78711L52.3722 17.1525C52.2274 17.3737 52.0695 17.5578 51.8982 17.7051C51.7271 17.8404 51.477 17.9079 51.1478 17.9079C50.8844 17.9079 50.641 17.8404 50.4171 17.7051C50.2064 17.5578 50.0484 17.3737 49.9431 17.1525L43.11 1.78711ZM63.3518 9.02763C63.3518 9.91197 63.5362 10.7533 63.9047 11.5517C64.2733 12.3378 64.7737 13.0317 65.4056 13.6335C66.0376 14.2231 66.7749 14.6898 67.6176 15.0337C68.4734 15.3776 69.3883 15.5497 70.3626 15.5497C71.3501 15.5497 72.2717 15.3776 73.1275 15.0337C73.9833 14.6898 74.7206 14.2231 75.3393 13.6335C75.9712 13.0317 76.465 12.3378 76.8206 11.5517C77.1892 10.7533 77.3735 9.91197 77.3735 9.02763C77.3735 8.13101 77.1892 7.28352 76.8206 6.48515C76.465 5.68678 75.9712 4.99284 75.3393 4.40328C74.7206 3.81372 73.9833 3.34698 73.1275 3.00307C72.2717 2.65917 71.3501 2.4872 70.3626 2.4872C69.3883 2.4872 68.4734 2.65917 67.6176 3.00307C66.7749 3.34698 66.0376 3.81372 65.4056 4.40328C64.7737 4.99284 64.2733 5.68678 63.9047 6.48515C63.5362 7.28352 63.3518 8.13101 63.3518 9.02763ZM60.7253 9.02763C60.7253 7.77482 60.9754 6.60183 61.4757 5.50869C61.9892 4.40328 62.6804 3.44523 63.5494 2.6346C64.4315 1.82395 65.4517 1.18527 66.6103 0.718527C67.7822 0.239503 69.033 0 70.3626 0C71.7056 0 72.9629 0.239503 74.1346 0.718527C75.3065 1.18527 76.3267 1.83009 77.1957 2.65302C78.0647 3.46366 78.7492 4.41556 79.2495 5.50869C79.7498 6.60183 80 7.77482 80 9.02763C80 10.2682 79.7498 11.435 79.2495 12.5281C78.7492 13.609 78.0647 14.5547 77.1957 15.3654C76.3267 16.176 75.3065 16.8209 74.1346 17.2999C72.9629 17.7666 71.7056 18 70.3626 18C69.033 18 67.7822 17.7666 66.6103 17.2999C65.4517 16.8209 64.4315 16.176 63.5494 15.3654C62.6804 14.5547 61.9892 13.609 61.4757 12.5281C60.9754 11.435 60.7253 10.2682 60.7253 9.02763Z" fill="#333230"/>
</svg>
