<svg width="20" height="21" viewBox="0 0 20 21" fill="none" xmlns="http://www.w3.org/2000/svg">
<path d="M17.4882 4.1812C17.4697 3.87645 17.3403 3.58902 17.1244 3.37314C16.9085 3.15725 16.6211 3.02784 16.3164 3.00932C15.3336 2.95073 12.8218 3.04057 10.7375 5.12417L10.3664 5.49995H5.80934C5.64455 5.49902 5.48123 5.53086 5.32887 5.59363C5.17651 5.6564 5.03815 5.74884 4.92184 5.86557L2.24215 8.54682C2.07781 8.71105 1.9625 8.91782 1.90914 9.14394C1.85579 9.37006 1.86651 9.60658 1.9401 9.82695C2.01369 10.0473 2.14724 10.2428 2.32576 10.3915C2.50428 10.5402 2.7207 10.6362 2.95074 10.6687L5.95621 11.0882L9.41012 14.5421L9.82965 17.5492C9.86191 17.7792 9.95788 17.9957 10.1067 18.174C10.2555 18.3524 10.4513 18.4856 10.6718 18.5585C10.8003 18.6015 10.9348 18.6233 11.0703 18.6234C11.2343 18.6237 11.3967 18.5915 11.5482 18.5288C11.6997 18.466 11.8373 18.3739 11.9531 18.2578L14.6343 15.5781C14.7511 15.4618 14.8435 15.3234 14.9063 15.171C14.969 15.0187 15.0009 14.8554 15 14.6906V10.1335L15.3726 9.76088C17.457 7.67651 17.5468 5.16479 17.4882 4.1812ZM5.80934 6.74995H9.11637L6.02809 9.83745L3.12496 9.43276L5.80934 6.74995ZM11.6226 6.01167C12.2232 5.4074 12.9458 4.93823 13.7421 4.63551C14.5385 4.33278 15.3903 4.20347 16.2406 4.2562C16.2954 5.10696 16.1674 5.9596 15.8653 6.75679C15.5631 7.55399 15.0939 8.27729 14.489 8.87807L9.99996 13.3656L7.13434 10.4999L11.6226 6.01167ZM13.75 14.6906L11.0679 17.3749L10.6625 14.471L13.75 11.3835V14.6906ZM7.95621 15.4328C7.60465 16.2031 6.42887 17.9999 3.12496 17.9999C2.9592 17.9999 2.80023 17.9341 2.68302 17.8169C2.56581 17.6997 2.49996 17.5407 2.49996 17.3749C2.49996 14.071 4.29684 12.8953 5.06715 12.5429C5.14184 12.5089 5.22251 12.4898 5.30454 12.487C5.38658 12.4841 5.46839 12.4974 5.54529 12.5261C5.62218 12.5548 5.69267 12.5984 5.75272 12.6544C5.81277 12.7104 5.86121 12.7776 5.89527 12.8523C5.92934 12.927 5.94835 13.0076 5.95124 13.0897C5.95413 13.1717 5.94083 13.2535 5.9121 13.3304C5.88337 13.4073 5.83978 13.4778 5.78381 13.5379C5.72784 13.5979 5.66059 13.6464 5.5859 13.6804C5.08356 13.9093 3.97496 14.646 3.77965 16.7203C5.85387 16.5249 6.59215 15.4164 6.81949 14.914C6.85356 14.8393 6.90199 14.7721 6.96205 14.7161C7.0221 14.6601 7.09258 14.6165 7.16948 14.5878C7.24638 14.5591 7.32818 14.5458 7.41022 14.5487C7.49226 14.5516 7.57293 14.5706 7.64762 14.6046C7.72231 14.6387 7.78956 14.6871 7.84553 14.7472C7.9015 14.8072 7.94509 14.8777 7.97382 14.9546C8.00254 15.0315 8.01585 15.1133 8.01296 15.1954C8.01007 15.2774 7.99106 15.3581 7.95699 15.4328H7.95621Z" fill="#1B1B1B"/>
</svg>
