<svg width="24" height="25" viewBox="0 0 24 25" fill="none" xmlns="http://www.w3.org/2000/svg">
<path d="M16.0004 9.96191V6.96191C16.0004 4.75278 14.2095 2.96191 12.0004 2.96191C9.79123 2.96191 8.00037 4.75278 8.00037 6.96191V9.96191M3.59237 11.3139L2.99237 17.7139C2.82178 19.5336 2.73648 20.4434 3.03842 21.1462C3.30367 21.7635 3.76849 22.274 4.35839 22.5957C5.0299 22.9619 5.94374 22.9619 7.77142 22.9619H16.2293C18.057 22.9619 18.9708 22.9619 19.6423 22.5957C20.2322 22.274 20.6971 21.7635 20.9623 21.1462C21.2643 20.4434 21.179 19.5336 21.0084 17.7139L20.4084 11.3139C20.2643 9.77726 20.1923 9.00895 19.8467 8.42808C19.5424 7.9165 19.0927 7.50703 18.555 7.25176C17.9444 6.96192 17.1727 6.96192 15.6293 6.96192L8.37142 6.96191C6.82806 6.96191 6.05638 6.96191 5.44579 7.25176C4.90803 7.50702 4.45838 7.9165 4.15403 8.42808C3.80846 9.00895 3.73643 9.77726 3.59237 11.3139Z" stroke="white" stroke-width="2" stroke-linecap="round" stroke-linejoin="round"/>
</svg>
